{
  "source": "C:\\Users\\Peter\\Desktop\\stuff\\MIUN\\quantitative_research\\video_compression\\videos\\BVI-HD\\BVI-HD_CDVL_videos\\ORIG\\Diver_1920x1080_30fps.mp4",
  "output": "C:\\Users\\Peter\\Desktop\\stuff\\MIUN\\quantitative_research\\video_compression\\compressed_videos\\BVI-HD\\av1\\1\\Diver_1920x1080_30fps_av1.mkv",
  "codec": "av1",
  "ok": "Input #0, mov,mp4,m4a,3gp,3g2,mj2, from 'C:\\Users\\Peter\\Desktop\\stuff\\MIUN\\quantitative_research\\video_compression\\videos\\BVI-HD\\BVI-HD_CDVL_videos\\ORIG\\Diver_1920x1080_30fps.mp4':\n  Metadata:\n    major_brand     : isom\n    minor_version   : 512\n    compatible_brands: isomiso2avc1mp41\n    encoder         : Lavf54.28.101\n  Duration: 00:00:05.00, start: 0.000000, bitrate: 196798 kb/s\n  Stream #0:0[0x1](und): Video: h264 (High 4:4:4 Predictive) (avc1 / 0x31637661), yuv420p(progressive), 1920x1080, 196794 kb/s, 30 fps, 30 tbr, 30 tbn (default)\n    Metadata:\n      handler_name    : VideoHandler\n      vendor_id       : [0][0][0][0]\n[out#0/matroska @ 000001c7b1a80c00] Codec AVOption b:a (set bitrate (in bits/s)) has not been used for any stream. The most likely reason is either wrong type (e.g. a video option with no video streams) or that it is a private option of some decoder which was not actually used for any stream.\nStream mapping:\n  Stream #0:0 -> #0:0 (h264 (native) -> av1 (libsvtav1))\nPress [q] to stop, [?] for help\nSvt[info]: -------------------------------------------\nSvt[info]: SVT [version]:\tSVT-AV1 Encoder Lib v3.1.0-19-g6ecfe8ec\nSvt[info]: SVT [build]  :\tGCC 15.2.0\t 64 bit\nSvt[info]: LIB Build date: Aug 17 2025 11:37:13\nSvt[info]: -------------------------------------------\nSvt[info]: Level of Parallelism: 5\nSvt[info]: Number of PPCS 93\nSvt[info]: [asm level on system : up to avx2]\nSvt[info]: [asm level selected : up to avx2]\nSvt[info]: -------------------------------------------\nSvt[info]: SVT [config]: main profile\ttier (auto)\tlevel (auto)\nSvt[info]: SVT [config]: width / height / fps numerator / fps denominator \t\t: 1920 / 1080 / 30 / 1\nSvt[info]: SVT [config]: bit-depth / color format \t\t\t\t\t: 8 / YUV420\nSvt[info]: SVT [config]: preset / tune / pred struct \t\t\t\t\t: 4 / PSNR / random access\nSvt[info]: SVT [config]: gop size / mini-gop size / key-frame type \t\t\t: 161 / 16 / key frame\nSvt[info]: SVT [config]: BRC mode / target bitrate (kbps)\t\t\t\t: VBR / 1000 \nSvt[info]: SVT [config]: AQ mode / Variance Boost \t\t\t\t\t: 2 / 0\nSvt[info]: SVT [config]: sharpness / luminance-based QP bias \t\t\t\t: 0 / 0\nSvt[info]: SVT [config]: QP scale compress strength \t\t\t\t\t: 0\nSvt[info]: -------------------------------------------\nOutput #0, matroska, to 'C:\\Users\\Peter\\Desktop\\stuff\\MIUN\\quantitative_research\\video_compression\\compressed_videos\\BVI-HD\\av1\\1\\Diver_1920x1080_30fps_av1.mkv':\n  Metadata:\n    major_brand     : isom\n    minor_version   : 512\n    compatible_brands: isomiso2avc1mp41\n    encoder         : Lavf62.3.100\n  Stream #0:0(und): Video: av1 (AV01 / 0x31305641), yuv420p(tv, progressive), 1920x1080, q=2-31, 1000 kb/s, 30 fps, 1k tbn (default)\n    Metadata:\n      encoder         : Lavc62.11.100 libsvtav1\n      handler_name    : VideoHandler\n      vendor_id       : [0][0][0][0]\n    Side data:\n      cpb: bitrate max/min/avg: 0/0/1000000 buffer size: 1000000 vbv_delay: N/A\nframe=    0 fps=0.0 q=0.0 size=       0KiB time=N/A bitrate=N/A speed=N/A elapsed=0:00:01.02    \nframe=    0 fps=0.0 q=0.0 size=       0KiB time=N/A bitrate=N/A speed=N/A elapsed=0:00:01.55    \nframe=    0 fps=0.0 q=0.0 size=       0KiB time=N/A bitrate=N/A speed=N/A elapsed=0:00:02.09    \nframe=    1 fps=0.4 q=15.0 size=       1KiB time=00:00:00.00 bitrate=N/A speed=   0x elapsed=0:00:02.59    \nframe=    1 fps=0.3 q=15.0 size=       1KiB time=00:00:00.00 bitrate=N/A speed=   0x elapsed=0:00:03.12    \nframe=    2 fps=0.6 q=43.0 size=       1KiB time=00:00:00.03 bitrate= 171.1kbits/s speed=0.00919x elapsed=0:00:03.62    \nframe=    7 fps=1.7 q=39.0 size=       1KiB time=00:00:00.20 bitrate=  28.5kbits/s speed=0.0478x elapsed=0:00:04.18    \nframe=   11 fps=2.3 q=39.0 size=       1KiB time=00:00:00.33 bitrate=  17.1kbits/s speed=0.0708x elapsed=0:00:04.70    \nframe=   16 fps=3.1 q=37.0 size=       1KiB time=00:00:00.50 bitrate=  11.4kbits/s speed=0.0957x elapsed=0:00:05.22    \nframe=   20 fps=3.5 q=35.0 size=       1KiB time=00:00:00.63 bitrate=   9.0kbits/s speed=0.11x elapsed=0:00:05.74    \nframe=   23 fps=3.7 q=35.0 size=       1KiB time=00:00:00.73 bitrate=   7.8kbits/s speed=0.117x elapsed=0:00:06.26    \nframe=   26 fps=3.8 q=32.0 size=       1KiB time=00:00:00.83 bitrate=   6.8kbits/s speed=0.122x elapsed=0:00:06.82    \nframe=   27 fps=3.6 q=34.0 size=       1KiB time=00:00:00.86 bitrate=   6.6kbits/s speed=0.117x elapsed=0:00:07.42    \nframe=   30 fps=3.7 q=31.0 size=       1KiB time=00:00:00.96 bitrate=   5.9kbits/s speed=0.121x elapsed=0:00:08.00    \nframe=   33 fps=3.8 q=21.0 size=       1KiB time=00:00:01.06 bitrate=   5.3kbits/s speed=0.124x elapsed=0:00:08.62    \nframe=   34 fps=3.7 q=31.0 size=       1KiB time=00:00:01.10 bitrate=   5.2kbits/s speed=0.12x elapsed=0:00:09.19    \nframe=   36 fps=3.7 q=29.0 size=       1KiB time=00:00:01.16 bitrate=   4.9kbits/s speed=0.12x elapsed=0:00:09.72    \nframe=   38 fps=3.7 q=31.0 size=       1KiB time=00:00:01.23 bitrate=   4.6kbits/s speed=0.12x elapsed=0:00:10.28    \nframe=   39 fps=3.6 q=34.0 size=       1KiB time=00:00:01.26 bitrate=   4.5kbits/s speed=0.116x elapsed=0:00:10.88    \nframe=   42 fps=3.7 q=32.0 size=       1KiB time=00:00:01.36 bitrate=   4.2kbits/s speed=0.12x elapsed=0:00:11.41    \nframe=   46 fps=3.8 q=33.0 size=       1KiB time=00:00:01.43 bitrate=   4.0kbits/s speed=0.12x elapsed=0:00:11.97    \nframe=   49 fps=3.9 q=20.0 size=       1KiB time=00:00:01.56 bitrate=   3.6kbits/s speed=0.125x elapsed=0:00:12.56    \nframe=   51 fps=3.9 q=36.0 size=       1KiB time=00:00:01.66 bitrate=   3.4kbits/s speed=0.127x elapsed=0:00:13.10    \nframe=   57 fps=4.2 q=27.0 size=       1KiB time=00:00:01.86 bitrate=   3.1kbits/s speed=0.137x elapsed=0:00:13.62    \nframe=   59 fps=4.2 q=38.0 size=       1KiB time=00:00:01.93 bitrate=   3.0kbits/s speed=0.136x elapsed=0:00:14.16    \nframe=   61 fps=4.2 q=37.0 size=       1KiB time=00:00:02.00 bitrate=   2.9kbits/s speed=0.136x elapsed=0:00:14.68    \nframe=   67 fps=4.4 q=38.0 size=       1KiB time=00:00:02.20 bitrate=   2.6kbits/s speed=0.145x elapsed=0:00:15.20    \nframe=   71 fps=4.5 q=39.0 size=       1KiB time=00:00:02.33 bitrate=   2.4kbits/s speed=0.148x elapsed=0:00:15.72    \nframe=   73 fps=4.5 q=27.0 size=       1KiB time=00:00:02.40 bitrate=   2.4kbits/s speed=0.148x elapsed=0:00:16.24    \nframe=   77 fps=4.6 q=38.0 size=       1KiB time=00:00:02.53 bitrate=   2.3kbits/s speed=0.151x elapsed=0:00:16.75    \nframe=   81 fps=4.7 q=14.0 size=       1KiB time=00:00:02.66 bitrate=   2.1kbits/s speed=0.154x elapsed=0:00:17.27    \nframe=   85 fps=4.8 q=40.0 size=       1KiB time=00:00:02.80 bitrate=   2.0kbits/s speed=0.157x elapsed=0:00:17.79    \nframe=   89 fps=4.9 q=28.0 size=       1KiB time=00:00:02.93 bitrate=   1.9kbits/s speed=0.16x elapsed=0:00:18.33    \nframe=   93 fps=4.9 q=39.0 size=       1KiB time=00:00:03.06 bitrate=   1.9kbits/s speed=0.163x elapsed=0:00:18.86    \nframe=   97 fps=5.0 q=14.0 size=       1KiB time=00:00:03.20 bitrate=   1.8kbits/s speed=0.165x elapsed=0:00:19.39    \nframe=  101 fps=5.1 q=38.0 size=       1KiB time=00:00:03.33 bitrate=   1.7kbits/s speed=0.167x elapsed=0:00:19.91    \nframe=  105 fps=5.1 q=28.0 size=       1KiB time=00:00:03.46 bitrate=   1.6kbits/s speed=0.17x elapsed=0:00:20.43    \nframe=  105 fps=5.0 q=28.0 size=       1KiB time=00:00:03.46 bitrate=   1.6kbits/s speed=0.165x elapsed=0:00:20.95    \nframe=  109 fps=5.1 q=39.0 size=       1KiB time=00:00:03.60 bitrate=   1.6kbits/s speed=0.168x elapsed=0:00:21.47    \nframe=  111 fps=5.0 q=41.0 size=       1KiB time=00:00:03.66 bitrate=   1.6kbits/s speed=0.167x elapsed=0:00:21.99    \nframe=  115 fps=5.1 q=42.0 size=       1KiB time=00:00:03.80 bitrate=   1.5kbits/s speed=0.169x elapsed=0:00:22.51    \nframe=  119 fps=5.2 q=42.0 size=       1KiB time=00:00:03.93 bitrate=   1.5kbits/s speed=0.171x elapsed=0:00:23.02    \nframe=  121 fps=5.1 q=27.0 size=       1KiB time=00:00:04.00 bitrate=   1.4kbits/s speed=0.17x elapsed=0:00:23.54    \nframe=  123 fps=5.1 q=43.0 size=       1KiB time=00:00:04.06 bitrate=   1.4kbits/s speed=0.169x elapsed=0:00:24.08    \nframe=  125 fps=5.1 q=41.0 size=       1KiB time=00:00:04.13 bitrate=   1.4kbits/s speed=0.167x elapsed=0:00:24.68    \nframe=  129 fps=5.1 q=18.0 size=       1KiB time=00:00:04.26 bitrate=   1.3kbits/s speed=0.169x elapsed=0:00:25.24    \nframe=  133 fps=5.2 q=42.0 size=       1KiB time=00:00:04.40 bitrate=   1.3kbits/s speed=0.171x elapsed=0:00:25.79    \nframe=  135 fps=5.1 q=43.0 size=       1KiB time=00:00:04.46 bitrate=   1.3kbits/s speed=0.169x elapsed=0:00:26.35    \nframe=  137 fps=5.1 q=33.0 size=       1KiB time=00:00:04.53 bitrate=   1.3kbits/s speed=0.169x elapsed=0:00:26.89    \nframe=  141 fps=5.1 q=43.0 size=       1KiB time=00:00:04.66 bitrate=   1.2kbits/s speed=0.17x elapsed=0:00:27.43    \nframe=  143 fps=5.1 q=43.0 size=       1KiB time=00:00:04.73 bitrate=   1.2kbits/s speed=0.169x elapsed=0:00:27.97    \n[out#0/matroska @ 000001c7b1a80c00] video:542KiB audio:0KiB subtitle:0KiB other streams:0KiB global headers:0KiB muxing overhead: 0.259613%\nframe=  150 fps=5.3 q=47.0 Lsize=     543KiB time=00:00:04.96 bitrate= 896.4kbits/s speed=0.177x elapsed=0:00:28.04    \n",
  "seconds": 28.553568124771118,
  "probe_out": {}
}